Coordinates
version=1
nRows=21
nColumns=19
inDegrees=yes

Units are S.I. units (second, meters, Newtons, ...)
Angles are in degrees.

endheader
time	pelvis_tilt	pelvis_list	pelvis_rotation	pelvis_tx	pelvis_ty	pelvis_tz	hip_flexion_r	hip_adduction_r	hip_rotation_r	knee_angle_r	ankle_angle_r	subtalar_angle_r	hip_flexion_l	hip_adduction_l	hip_rotation_l	knee_angle_l	ankle_angle_l	subtalar_angle_l
      0.00000000	      6.82812891	     -2.16506199	     -2.93035210	      0.61402554	      1.01849811	      0.03779816	    -23.44793605	      0.99313293	      0.04789945	     -8.52224881	     14.32760661	     12.01490308	     16.27066957	     -4.03896303	     -6.73094666	     -3.01688370	     -0.72827646	      6.43720354
      0.01700000	      6.28168662	     -1.70405447	     -3.16567539	      0.61477101	      1.01722931	      0.03531080	    -22.90546337	      0.06546641	     -0.82193487	    -10.72963271	     14.82010506	     13.81397695	     17.06154630	     -3.35549671	     -6.16496608	     -5.05357796	     -2.47657243	      5.62971077
      0.03300000	      5.88869412	     -1.23683445	     -3.17559086	      0.61637184	      1.01621897	      0.03222443	    -22.65704811	     -0.80731587	     -1.54965278	    -12.74196522	     14.86665697	     15.14167823	     17.62161109	     -2.61753960	     -5.98876680	     -7.08021012	     -3.95875979	      5.48025885
      0.05000000	      5.57297589	     -0.84327512	     -3.44847688	      0.61811191	      1.01557372	      0.02973214	    -22.21818912	     -1.66746384	     -1.71189661	    -15.22236070	     14.63302718	     16.01616314	     18.10079231	     -2.12934687	     -6.12203236	     -9.30154398	     -4.94570789	      5.45880835
      0.06700000	      5.71098636	     -0.45680646	     -3.49991560	      0.62067973	      1.01609532	      0.02735640	    -22.17702860	     -2.42061074	     -1.92411951	    -17.86756883	     13.77601353	     16.54343814	     18.02328644	     -1.63052495	     -5.95287056	    -11.59289856	     -5.36812464	      5.32112078
      0.08300000	      5.79096634	      0.00555491	     -3.31392326	      0.62351321	      1.01717307	      0.02417354	    -21.70905225	     -3.22948418	     -2.53904387	    -21.13146899	     12.41394991	     17.13906046	     17.62919744	     -0.87252463	     -5.07934689	    -13.22409906	     -5.63699239	      4.29732813
      0.10000000	      6.08167947	      0.47425067	     -3.29574471	      0.62647707	      1.01876506	      0.02100817	    -20.86405618	     -4.17783221	     -3.07495743	    -25.33566233	     10.48271395	     17.52697146	     17.04630546	     -0.27939308	     -5.14363182	    -15.18884785	     -5.05307876	      4.49766867
      0.11700000	      6.37685681	      0.78207906	     -2.89144073	      0.62920368	      1.02101847	      0.01718928	    -19.66496444	     -4.85382464	     -3.90329065	    -29.92811194	      7.47427270	     17.18434331	     16.17692364	      0.26628570	     -4.92952747	    -16.59952403	     -4.31613822	      4.84005345
      0.13300000	      6.47962686	      1.07987652	     -2.81771482	      0.63134469	      1.02324043	      0.01402490	    -17.53610261	     -5.68861007	     -4.50255813	    -35.32287211	      3.71259832	     16.21893920	     15.23924888	      0.68746442	     -5.19911875	    -17.53348919	     -3.37570159	      5.35921775
      0.15000000	      6.54740919	      1.32747397	     -2.74789906	      0.63267656	      1.02590028	      0.01048457	    -14.97351428	     -6.48222765	     -5.00974438	    -40.80456485	     -0.74205563	     14.17327618	     13.97900443	      1.15159772	     -5.40681139	    -17.67228296	     -2.56891374	      5.68128987
      0.16700000	      6.72253973	      1.41632437	     -2.32678879	      0.63417830	      1.02891850	      0.00719982	    -12.60072576	     -6.88243369	     -5.70238617	    -45.70562263	     -5.10755731	     11.00879632	     12.50326496	      1.45768668	     -5.56415811	    -17.66310197	     -1.54434407	      6.56283241
      0.18300000	      6.73378733	      1.73255364	     -2.55903347	      0.63362382	      1.03163242	      0.00416602	     -9.54469238	     -7.75861688	     -5.90347323	    -50.76776144	     -8.04756422	      7.81927079	     11.03205361	      2.00880138	     -5.90600100	    -17.08032937	     -0.86082939	      6.68864584
      0.20000000	      6.68715027	      1.80114321	     -2.48033579	      0.63307786	      1.03425656	      0.00123227	     -6.62788636	     -8.09463368	     -6.11659463	    -55.20277165	     -9.26342265	      4.18715867	      9.70400795	      2.31026272	     -5.96613563	    -16.68688209	     -0.02188550	      7.05015674
      0.21700000	      6.50582171	      1.68048293	     -2.34024765	      0.63179049	      1.03662192	     -0.00168979	     -3.60973925	     -8.08533767	     -6.23045727	    -59.16558800	     -8.83855575	      0.76531866	      8.59098171	      2.38583252	     -5.96931919	    -16.38077102	      0.82993198	      7.53793695
      0.23300000	      6.51033398	      1.34350770	     -1.81874225	      0.63142756	      1.03963076	     -0.00482462	     -1.23400798	     -7.73629798	     -6.71347478	    -62.11187931	     -7.51760377	     -2.06612687	      7.08394540	      2.25972246	     -5.68677255	    -15.78899198	      1.60755530	      8.21797783
      0.25000000	      6.59442837	      1.19056153	     -1.64579629	      0.62961833	      1.04242083	     -0.00704107	      1.27424932	     -7.52572311	     -6.72981529	    -64.68788150	     -5.83823057	     -4.11993312	      5.43039874	      2.29307106	     -5.55359500	    -14.86535136	      2.11116622	      8.50217593
      0.26700000	      6.40634268	      0.72522825	     -1.09660410	      0.62810331	      1.04458985	     -0.00979291	      3.75883175	     -7.04515597	     -7.24355702	    -66.33653025	     -4.33630476	     -5.14976149	      4.16820184	      1.97782144	     -5.19794079	    -14.14827319	      2.77652611	      9.01445278
      0.28300000	      6.47764046	      0.36079106	     -0.56256908	      0.62618063	      1.04671720	     -0.01191378	      5.94587511	     -6.54835088	     -7.52305824	    -67.33226938	     -3.14168558	     -5.53418257	      2.66943989	      1.67382758	     -5.12876320	    -13.42609443	      3.40201084	      9.87765998
      0.30000000	      6.52633996	      0.12778283	     -0.13634638	      0.62416032	      1.04843019	     -0.01425714	      8.04577732	     -6.31924755	     -7.74719904	    -67.63539615	     -2.02722866	     -4.68316745	      1.07850173	      1.54541272	     -4.95715772	    -12.42086586	      3.83076551	     10.37561016
      0.31700000	      6.38318358	      0.02257991	      0.07201994	      0.62100401	      1.04913437	     -0.01573913	     10.43225485	     -6.07334760	     -7.51604809	    -67.43661153	     -0.98572163	     -3.22267165	     -0.16622884	      1.48832497	     -5.02010750	    -11.58261865	      4.29199376	     10.94255588
      0.33300000	      6.42369795	     -0.39571512	      0.69544438	      0.61884475	      1.05012624	     -0.01770459	     12.06496585	     -5.66590877	     -7.92570979	    -66.10059364	      0.01776605	     -1.03706023	     -1.55379293	      0.98697988	     -5.34261757	    -10.95121274	      4.95293062	     12.55720552
